<svg width="131" height="32" viewBox="0 0 131 32" fill="none"
  xmlns="http://www.w3.org/2000/svg">
  <path fill="#9bc3ff" style="fill: var(--color1, #9bc3ff)" d="M30.783 16c0 8.164-6.618 14.783-14.783 14.783s-14.783-6.618-14.783-14.783c0-8.164 6.618-14.783 14.783-14.783s14.783 6.618 14.783 14.783z"></path>
  <path fill="#000" style="fill: var(--color2, #000)" d="M6.584 11.060c0-0.147 0.068-0.275 0.204-0.382 0.136-0.113 0.263-0.17 0.382-0.17 0.198 0.006 0.365 0.068 0.501 0.187 0.136 0.113 0.204 0.263 0.204 0.45v4.509h6.776v-4.509c0-0.175 0.059-0.326 0.178-0.45 0.125-0.125 0.275-0.187 0.45-0.187 0.181 0 0.334 0.062 0.459 0.187s0.187 0.277 0.187 0.459v10.598c0 0.175-0.065 0.326-0.195 0.45-0.125 0.125-0.275 0.187-0.45 0.187s-0.326-0.062-0.45-0.187c-0.119-0.125-0.178-0.275-0.178-0.45v-4.823h-6.777v4.849c0 0.175-0.062 0.326-0.187 0.45-0.119 0.125-0.266 0.187-0.442 0.187s-0.331-0.062-0.467-0.187c-0.13-0.13-0.195-0.283-0.195-0.459v-10.708z"></path>
  <path fill="#000" style="fill: var(--color2, #000)" d="M17.963 11.145c0-0.175 0.062-0.326 0.187-0.45s0.275-0.187 0.45-0.187l6.929-0.008c0.175 0 0.326 0.062 0.45 0.187s0.187 0.275 0.187 0.45c0 0.175-0.062 0.325-0.187 0.45s-0.275 0.187-0.45 0.187h-0.009l-6.284 0.008 0.009 3.575c0.028 0 0.051-0.003 0.068-0.008l4.662-0.042c0.147 0 0.275 0.068 0.382 0.204 0.113 0.136 0.17 0.263 0.17 0.382 0 0.192-0.059 0.357-0.178 0.493-0.119 0.13-0.272 0.195-0.459 0.195l-4.637 0.042 0.009 5.087v0.017c0 0.175-0.062 0.326-0.187 0.45s-0.275 0.187-0.45 0.187-0.326-0.062-0.45-0.187c-0.125-0.125-0.187-0.275-0.187-0.45v-0.009l-0.026-10.572z"></path>
  <path fill="none" stroke="#000" style="stroke: var(--color2, #000)" stroke-linejoin="miter" stroke-linecap="butt" stroke-miterlimit="4" stroke-width="1.2174" d="M16 31.391c8.5 0 15.391-6.891 15.391-15.391s-6.891-15.391-15.391-15.391c-8.5 0-15.391 6.891-15.391 15.391s6.891 15.391 15.391 15.391z"></path>
  <path fill="#000" style="fill: var(--color2, #000)" d="M37.715 10.712c0-0.147 0.068-0.275 0.204-0.382 0.136-0.113 0.263-0.17 0.382-0.17 0.198 0.006 0.365 0.068 0.501 0.187 0.136 0.113 0.204 0.263 0.204 0.45v4.509h6.777v-4.509c0-0.175 0.059-0.326 0.178-0.45 0.125-0.125 0.275-0.187 0.45-0.187 0.181 0 0.334 0.062 0.459 0.187s0.187 0.277 0.187 0.459v10.598c0 0.175-0.065 0.326-0.195 0.45-0.125 0.125-0.275 0.187-0.45 0.187s-0.325-0.062-0.45-0.187c-0.119-0.125-0.178-0.275-0.178-0.45v-4.823h-6.777v4.849c0 0.175-0.062 0.326-0.187 0.45-0.119 0.125-0.266 0.187-0.442 0.187s-0.331-0.062-0.467-0.187c-0.13-0.13-0.195-0.283-0.195-0.459v-10.708zM53.161 13.2c0.594 0 1.149 0.119 1.664 0.357s0.965 0.566 1.35 0.985c0.391 0.413 0.693 0.886 0.909 1.418 0.221 0.532 0.331 1.095 0.331 1.69 0 0.787-0.187 1.517-0.561 2.191s-0.88 1.22-1.52 1.639c-0.634 0.413-1.347 0.623-2.14 0.628-0.804 0-1.529-0.207-2.174-0.62s-1.158-0.957-1.537-1.63c-0.374-0.679-0.561-1.415-0.561-2.208 0-0.589 0.108-1.149 0.323-1.681 0.221-0.538 0.524-1.013 0.909-1.427 0.385-0.419 0.832-0.747 1.342-0.985 0.515-0.238 1.070-0.357 1.665-0.357zM53.161 14.474c-0.555 0-1.056 0.147-1.503 0.442s-0.804 0.682-1.070 1.163c-0.261 0.476-0.391 0.994-0.391 1.554 0 0.566 0.13 1.093 0.391 1.579s0.617 0.88 1.070 1.18c0.453 0.294 0.962 0.442 1.529 0.442 0.561-0.006 1.062-0.156 1.503-0.45 0.447-0.3 0.801-0.691 1.061-1.172s0.391-1.002 0.391-1.563c0-0.56-0.133-1.081-0.399-1.562-0.26-0.487-0.617-0.877-1.070-1.172-0.447-0.294-0.951-0.442-1.511-0.442zM65.755 15.026c0.187-0.3 0.416-0.592 0.688-0.875s0.594-0.515 0.968-0.696c0.374-0.181 0.801-0.272 1.282-0.272 0.719 0 1.291 0.173 1.715 0.518 0.425 0.34 0.73 0.807 0.917 1.401 0.193 0.594 0.289 1.268 0.289 2.021l0.009 4.28c0 0.175-0.062 0.326-0.187 0.45s-0.275 0.187-0.45 0.187c-0.175 0-0.326-0.062-0.45-0.187-0.125-0.13-0.187-0.283-0.187-0.459l-0.009-4.271c0-0.464-0.045-0.897-0.136-1.299-0.085-0.402-0.246-0.727-0.484-0.977s-0.586-0.374-1.045-0.374c-0.594 0-1.081 0.127-1.461 0.382-0.379 0.249-0.657 0.577-0.832 0.985-0.175 0.402-0.266 0.829-0.272 1.282l-0.017 4.305c0 0.175-0.062 0.326-0.187 0.45s-0.275 0.187-0.45 0.187c-0.175 0-0.326-0.062-0.45-0.187-0.125-0.13-0.187-0.283-0.187-0.459l-0.009-4.297c0-0.476-0.045-0.914-0.136-1.316s-0.261-0.725-0.51-0.968c-0.243-0.243-0.597-0.365-1.062-0.365-0.809 0-1.435 0.249-1.877 0.747-0.436 0.493-0.654 1.127-0.654 1.902l-0.009 4.322c0 0.176-0.062 0.326-0.187 0.45s-0.275 0.187-0.45 0.187-0.326-0.062-0.45-0.187c-0.125-0.13-0.187-0.283-0.187-0.458l-0.009-7.643c0.011-0.175 0.076-0.32 0.195-0.433 0.119-0.119 0.266-0.178 0.442-0.178 0.181 0 0.326 0.059 0.433 0.178 0.113 0.113 0.167 0.26 0.161 0.442l0.042 1.002c0.142-0.243 0.34-0.49 0.594-0.739 0.26-0.249 0.555-0.459 0.883-0.628 0.334-0.17 0.682-0.255 1.045-0.255 0.685 0 1.248 0.187 1.69 0.56 0.447 0.368 0.775 0.795 0.985 1.282zM77.898 22.083c-0.821 0-1.565-0.204-2.233-0.611-0.662-0.408-1.189-0.951-1.579-1.63-0.391-0.685-0.586-1.435-0.586-2.25 0-0.776 0.184-1.492 0.552-2.148 0.374-0.662 0.877-1.195 1.511-1.596s1.342-0.603 2.123-0.603c0.719 0 1.379 0.178 1.979 0.535 0.606 0.357 1.090 0.838 1.452 1.444 0.368 0.6 0.552 1.268 0.552 2.004 0 0.26-0.048 0.484-0.144 0.671-0.091 0.187-0.261 0.28-0.51 0.28h-6.182c0.091 0.47 0.275 0.906 0.552 1.308 0.283 0.396 0.637 0.716 1.061 0.96 0.43 0.243 0.909 0.365 1.435 0.365 0.447 0 0.886-0.099 1.316-0.297s0.784-0.47 1.061-0.815c0.125-0.164 0.292-0.246 0.501-0.246 0.175 0 0.326 0.062 0.45 0.187s0.187 0.275 0.187 0.45c0 0.153-0.051 0.291-0.153 0.416-0.407 0.498-0.909 0.886-1.503 1.163-0.589 0.277-1.203 0.416-1.843 0.416zM80.369 16.92c-0.051-0.442-0.201-0.844-0.45-1.206-0.249-0.368-0.566-0.66-0.951-0.875s-0.81-0.323-1.274-0.323c-0.481 0-0.92 0.11-1.316 0.331s-0.727 0.512-0.994 0.875c-0.26 0.362-0.439 0.761-0.535 1.197h5.52zM83.537 10.797c0-0.175 0.062-0.326 0.187-0.45s0.275-0.187 0.45-0.187l6.929-0.008c0.175 0 0.326 0.062 0.45 0.187s0.187 0.275 0.187 0.45c0 0.175-0.062 0.325-0.187 0.45s-0.275 0.187-0.45 0.187h-0.009l-6.284 0.008 0.009 3.575c0.028 0 0.051-0.003 0.068-0.008l4.662-0.042c0.147 0 0.275 0.068 0.382 0.204 0.113 0.136 0.17 0.263 0.17 0.382 0 0.193-0.059 0.357-0.178 0.493-0.119 0.13-0.272 0.195-0.459 0.195l-4.637 0.042 0.009 5.087v0.017c0 0.175-0.062 0.326-0.187 0.45s-0.274 0.187-0.45 0.187c-0.176 0-0.326-0.062-0.45-0.187s-0.187-0.275-0.187-0.45v-0.009l-0.025-10.572zM93.931 11.918c-0.243 0-0.459-0.088-0.645-0.263-0.181-0.175-0.272-0.388-0.272-0.637s0.091-0.461 0.272-0.637c0.187-0.175 0.402-0.263 0.645-0.263 0.249 0 0.464 0.088 0.645 0.263s0.272 0.388 0.272 0.637-0.091 0.461-0.272 0.637c-0.181 0.175-0.396 0.263-0.645 0.263zM93.311 13.761c0-0.147 0.068-0.275 0.204-0.382 0.136-0.113 0.263-0.17 0.382-0.17 0.198 0 0.362 0.059 0.493 0.178s0.195 0.275 0.195 0.467l0.017 7.617c0 0.175-0.062 0.326-0.187 0.45s-0.275 0.187-0.45 0.187c-0.175 0-0.326-0.065-0.45-0.195-0.125-0.125-0.187-0.275-0.187-0.45l-0.017-7.702zM97.523 13.192c0.175 0 0.317 0.062 0.425 0.187 0.113 0.125 0.17 0.275 0.17 0.45l0.042 1.011c0.204-0.249 0.439-0.498 0.705-0.747 0.272-0.249 0.58-0.456 0.926-0.62 0.351-0.17 0.742-0.255 1.172-0.255 0.753 0 1.356 0.193 1.809 0.577 0.458 0.385 0.79 0.892 0.994 1.52 0.209 0.623 0.314 1.296 0.314 2.021l-0.009 4.119c0 0.175-0.062 0.326-0.187 0.45s-0.275 0.187-0.45 0.187c-0.175 0-0.326-0.062-0.45-0.187-0.125-0.13-0.187-0.283-0.187-0.459l0.009-4.11c0-0.504-0.051-0.971-0.153-1.401s-0.286-0.778-0.552-1.044c-0.266-0.266-0.645-0.399-1.138-0.399-0.923 0-1.619 0.246-2.089 0.739s-0.705 1.186-0.705 2.081v4.161c0 0.175-0.062 0.326-0.187 0.45s-0.275 0.187-0.45 0.187-0.326-0.065-0.45-0.195c-0.125-0.125-0.187-0.275-0.187-0.45l-0.009-7.626c0-0.181 0.059-0.334 0.178-0.459 0.125-0.125 0.277-0.187 0.459-0.187zM109.912 22.091c-0.77 0-1.452-0.204-2.046-0.611s-1.062-0.943-1.401-1.605c-0.34-0.668-0.51-1.384-0.51-2.148 0-0.578 0.099-1.135 0.297-1.673s0.478-1.016 0.841-1.435c0.362-0.425 0.79-0.761 1.282-1.011s1.030-0.374 1.614-0.374c0.555 0 1.061 0.139 1.52 0.416s0.861 0.597 1.206 0.96v-3.838c0-0.175 0.062-0.325 0.187-0.45s0.274-0.187 0.45-0.187c0.181 0 0.331 0.062 0.45 0.187 0.125 0.125 0.187 0.275 0.187 0.45v10.691c0 0.175-0.062 0.326-0.187 0.45s-0.274 0.187-0.45 0.187c-0.175 0-0.32-0.062-0.433-0.187-0.107-0.125-0.161-0.275-0.161-0.45l-0.043-0.815c-0.323 0.328-0.722 0.651-1.197 0.968s-1.011 0.475-1.605 0.475zM109.938 20.818c0.577 0 1.073-0.156 1.486-0.467s0.73-0.713 0.951-1.206c0.221-0.493 0.331-1.005 0.331-1.537s-0.11-1.033-0.331-1.503c-0.215-0.47-0.526-0.852-0.934-1.146-0.408-0.3-0.897-0.45-1.469-0.45-0.549 0-1.027 0.159-1.435 0.476-0.408 0.311-0.725 0.716-0.951 1.214-0.226 0.493-0.34 1.011-0.34 1.554 0 0.538 0.11 1.042 0.331 1.512 0.226 0.464 0.541 0.841 0.943 1.129 0.408 0.283 0.88 0.425 1.418 0.425zM120.255 22.083c-0.821 0-1.565-0.204-2.233-0.611-0.662-0.408-1.189-0.951-1.579-1.63-0.391-0.685-0.586-1.435-0.586-2.25 0-0.776 0.184-1.492 0.552-2.148 0.374-0.662 0.877-1.195 1.511-1.596s1.342-0.603 2.123-0.603c0.719 0 1.378 0.178 1.979 0.535 0.606 0.357 1.090 0.838 1.452 1.444 0.368 0.6 0.552 1.268 0.552 2.004 0 0.26-0.048 0.484-0.144 0.671-0.090 0.187-0.26 0.28-0.509 0.28h-6.182c0.091 0.47 0.275 0.906 0.552 1.308 0.283 0.396 0.637 0.716 1.061 0.96 0.43 0.243 0.909 0.365 1.435 0.365 0.447 0 0.886-0.099 1.316-0.297s0.784-0.47 1.062-0.815c0.125-0.164 0.291-0.246 0.501-0.246 0.175 0 0.326 0.062 0.45 0.187s0.187 0.275 0.187 0.45c0 0.153-0.051 0.291-0.153 0.416-0.408 0.498-0.909 0.886-1.503 1.163-0.589 0.277-1.203 0.416-1.843 0.416zM122.727 16.92c-0.051-0.442-0.201-0.844-0.45-1.206-0.249-0.368-0.566-0.66-0.951-0.875s-0.81-0.323-1.274-0.323c-0.481 0-0.92 0.11-1.316 0.331s-0.727 0.512-0.994 0.875c-0.261 0.362-0.439 0.761-0.535 1.197h5.52zM130.896 14.024c0 0.153-0.051 0.294-0.153 0.425s-0.212 0.195-0.331 0.195c-0.175 0-0.342-0.040-0.501-0.119-0.153-0.085-0.34-0.127-0.56-0.127-0.555 0-0.991 0.119-1.308 0.357s-0.543 0.543-0.679 0.917c-0.13 0.368-0.195 0.759-0.195 1.172v4.628c0 0.175-0.054 0.326-0.161 0.45-0.102 0.13-0.26 0.195-0.475 0.195-0.21 0-0.368-0.065-0.476-0.195-0.107-0.125-0.161-0.275-0.161-0.45v-7.532c0-0.209 0.068-0.379 0.204-0.509 0.142-0.13 0.292-0.195 0.45-0.195 0.164 0 0.297 0.065 0.399 0.195 0.108 0.125 0.161 0.294 0.161 0.509l0.076 0.934c0.079-0.26 0.227-0.518 0.442-0.773 0.221-0.255 0.478-0.467 0.773-0.637 0.3-0.175 0.603-0.263 0.909-0.263 0.436 0 0.809 0.059 1.121 0.178 0.311 0.113 0.467 0.328 0.467 0.645z"></path>
</svg>