<svg width="32" height="32" viewBox="0 0 32 32" fill="none"
  xmlns="http://www.w3.org/2000/svg">
  <path fill="#9bc3ff" style="fill: var(--color1, #9bc3ff)" d="M30.783 16c0 8.164-6.618 14.783-14.783 14.783s-14.783-6.618-14.783-14.783c0-8.164 6.618-14.783 14.783-14.783s14.783 6.618 14.783 14.783z"></path>
  <path fill="#000" style="fill: var(--color2, #000)" d="M6.584 11.060c0-0.147 0.068-0.275 0.204-0.382 0.136-0.113 0.263-0.17 0.382-0.17 0.198 0.006 0.365 0.068 0.501 0.187 0.136 0.113 0.204 0.263 0.204 0.45v4.509h6.776v-4.509c0-0.175 0.059-0.326 0.178-0.45 0.125-0.125 0.275-0.187 0.45-0.187 0.181 0 0.334 0.062 0.459 0.187s0.187 0.277 0.187 0.459v10.598c0 0.175-0.065 0.326-0.195 0.45-0.125 0.125-0.275 0.187-0.45 0.187s-0.326-0.062-0.45-0.187c-0.119-0.125-0.178-0.275-0.178-0.45v-4.823h-6.777v4.849c0 0.175-0.062 0.326-0.187 0.45-0.119 0.125-0.266 0.187-0.442 0.187s-0.331-0.062-0.467-0.187c-0.13-0.13-0.195-0.283-0.195-0.459v-10.708z"></path>
  <path fill="#000" style="fill: var(--color2, #000)" d="M17.963 11.145c0-0.175 0.062-0.326 0.187-0.45s0.275-0.187 0.45-0.187l6.929-0.008c0.175 0 0.326 0.062 0.45 0.187s0.187 0.275 0.187 0.45c0 0.175-0.062 0.325-0.187 0.45s-0.275 0.187-0.45 0.187h-0.009l-6.284 0.008 0.009 3.575c0.028 0 0.051-0.003 0.068-0.008l4.662-0.042c0.147 0 0.275 0.068 0.382 0.204 0.113 0.136 0.17 0.263 0.17 0.382 0 0.192-0.059 0.357-0.178 0.493-0.119 0.13-0.272 0.195-0.459 0.195l-4.637 0.042 0.009 5.087v0.017c0 0.175-0.062 0.326-0.187 0.45s-0.275 0.187-0.45 0.187-0.326-0.062-0.45-0.187c-0.125-0.125-0.187-0.275-0.187-0.45v-0.009l-0.026-10.572z"></path>
  <path fill="none" stroke="#000" style="stroke: var(--color2, #000)" stroke-linejoin="miter" stroke-linecap="butt" stroke-miterlimit="4" stroke-width="1.2174" d="M16 31.391c8.5 0 15.391-6.891 15.391-15.391s-6.891-15.391-15.391-15.391c-8.5 0-15.391 6.891-15.391 15.391s6.891 15.391 15.391 15.391z"></path>
</svg>
